<svg width="48" height="48" viewBox="0 0 48 48" fill="none" xmlns="http://www.w3.org/2000/svg">
<rect width="48" height="48" rx="16" fill="#ECF1FF"/>
<path fill-rule="evenodd" clip-rule="evenodd" d="M35.0868 22.6573C33.0364 20.6036 28.684 16.2444 28.3372 15.8976C27.8822 15.4426 27.1355 15.4426 26.6805 15.8976C26.2255 16.3526 26.2255 17.0876 26.6805 17.5426L29.9841 20.8463C30.5185 21.3807 31.1107 21.8516 31.7514 22.2524L32.3119 22.6029L32.0801 22.8331C31.3043 22.6437 30.5079 22.5476 29.7078 22.5476H13.2143C12.5699 22.5476 12.0476 23.07 12.0476 23.7143C12.0476 24.3586 12.5699 24.881 13.2143 24.881L29.7078 24.881C30.5079 24.881 31.3043 24.785 32.0801 24.5955L32.3119 24.8257L31.7514 25.1763C31.1107 25.577 30.5185 26.048 29.9841 26.5824L26.6805 29.886C26.2255 30.341 26.2255 31.076 26.6805 31.531C27.1355 31.986 27.8822 31.986 28.3372 31.531C28.684 31.1842 33.0364 26.825 35.0868 24.7713C35.6715 24.1857 35.6715 23.2429 35.0868 22.6573Z" fill="#067AFF"/>
</svg>
