<svg width="100" height="16" viewBox="0 0 100 16" fill="none" xmlns="http://www.w3.org/2000/svg">
<path d="M8.0001 12.847L3.80305 15.3996C3.31008 15.6994 2.69993 15.2561 2.83274 14.6946L3.96351 9.9142L0.238829 6.71139C-0.198662 6.3352 0.0343971 5.61792 0.609456 5.57072L5.50535 5.16891L7.40041 0.636806C7.623 0.104477 8.37719 0.104477 8.59978 0.636806L10.4948 5.16891L15.3907 5.57072C15.9658 5.61792 16.1989 6.3352 15.7614 6.71139L12.0367 9.9142L13.1675 14.6946C13.3003 15.2561 12.6901 15.6994 12.1971 15.3996L8.0001 12.847Z" fill="#FFDC60"/>
<path d="M29.0001 12.847L24.8031 15.3996C24.3101 15.6994 23.6999 15.2561 23.8327 14.6946L24.9635 9.9142L21.2388 6.71139C20.8013 6.3352 21.0344 5.61792 21.6095 5.57072L26.5054 5.16891L28.4004 0.636806C28.623 0.104477 29.3772 0.104477 29.5998 0.636806L31.4948 5.16891L36.3907 5.57072C36.9658 5.61792 37.1989 6.3352 36.7614 6.71139L33.0367 9.9142L34.1675 14.6946C34.3003 15.2561 33.6901 15.6994 33.1971 15.3996L29.0001 12.847Z" fill="#FFDC60"/>
<path d="M50.0001 12.847L45.8031 15.3996C45.3101 15.6994 44.6999 15.2561 44.8327 14.6946L45.9635 9.9142L42.2388 6.71139C41.8013 6.3352 42.0344 5.61792 42.6095 5.57072L47.5054 5.16891L49.4004 0.636806C49.623 0.104477 50.3772 0.104477 50.5998 0.636806L52.4948 5.16891L57.3907 5.57072C57.9658 5.61792 58.1989 6.3352 57.7614 6.71139L54.0367 9.9142L55.1675 14.6946C55.3003 15.2561 54.6901 15.6994 54.1971 15.3996L50.0001 12.847Z" fill="#FFDC60"/>
<path d="M71.0001 12.847L66.8031 15.3996C66.3101 15.6994 65.6999 15.2561 65.8327 14.6946L66.9635 9.9142L63.2388 6.71139C62.8013 6.3352 63.0344 5.61792 63.6095 5.57072L68.5054 5.16891L70.4004 0.636806C70.623 0.104477 71.3772 0.104477 71.5998 0.636806L73.4948 5.16891L78.3907 5.57072C78.9658 5.61792 79.1989 6.3352 78.7614 6.71139L75.0367 9.9142L76.1675 14.6946C76.3003 15.2561 75.6901 15.6994 75.1971 15.3996L71.0001 12.847Z" fill="#FFDC60"/>
<path d="M92.0001 12.847L87.8031 15.3996C87.3101 15.6994 86.6999 15.2561 86.8327 14.6946L87.9635 9.9142L84.2388 6.71139C83.8013 6.3352 84.0344 5.61792 84.6095 5.57072L89.5054 5.16891L91.4004 0.636806C91.623 0.104477 92.3772 0.104477 92.5998 0.636806L94.4948 5.16891L99.3907 5.57072C99.9658 5.61792 100.199 6.3352 99.7614 6.71139L96.0367 9.9142L97.1675 14.6946C97.3003 15.2561 96.6901 15.6994 96.1971 15.3996L92.0001 12.847Z" fill="#ECEEF2"/>
</svg>
