<svg width="4" height="15" viewBox="0 0 4 15" fill="none" xmlns="http://www.w3.org/2000/svg">
<path fill-rule="evenodd" clip-rule="evenodd" d="M0 1.75C0 0.783502 0.783502 0 1.75 0C2.7165 0 3.5 0.783502 3.5 1.75C3.5 2.7165 2.7165 3.5 1.75 3.5C0.783502 3.5 0 2.7165 0 1.75ZM0 13.25C0 12.2835 0.783502 11.5 1.75 11.5C2.7165 11.5 3.5 12.2835 3.5 13.25C3.5 14.2165 2.7165 15 1.75 15C0.783502 15 0 14.2165 0 13.25ZM1.75 5.75C0.783502 5.75 0 6.5335 0 7.5C0 8.4665 0.783502 9.25 1.75 9.25C2.7165 9.25 3.5 8.4665 3.5 7.5C3.5 6.5335 2.7165 5.75 1.75 5.75Z" fill="#ffffff"/>
</svg>
